<svg id="visual" viewBox="0 0 900 600" width="900" height="600" xmlns="http://www.w3.org/2000/svg" xmlns:xlink="http://www.w3.org/1999/xlink" version="1.1"><rect x="0" y="0" width="900" height="600" fill="#abe9e6"></rect><path d="M0 154L11.5 175.5C23 197 46 240 69 229C92 218 115 153 138.2 143.3C161.3 133.7 184.7 179.3 207.8 186C231 192.7 254 160.3 277 141.2C300 122 323 116 346 144.2C369 172.3 392 234.7 415.2 244.7C438.3 254.7 461.7 212.3 484.8 178C508 143.7 531 117.3 554 130.8C577 144.3 600 197.7 623 226.3C646 255 669 259 692.2 226.3C715.3 193.7 738.7 124.3 761.8 131.8C785 139.3 808 223.7 831 263.5C854 303.3 877 298.7 888.5 296.3L900 294L900 601L888.5 601C877 601 854 601 831 601C808 601 785 601 761.8 601C738.7 601 715.3 601 692.2 601C669 601 646 601 623 601C600 601 577 601 554 601C531 601 508 601 484.8 601C461.7 601 438.3 601 415.2 601C392 601 369 601 346 601C323 601 300 601 277 601C254 601 231 601 207.8 601C184.7 601 161.3 601 138.2 601C115 601 92 601 69 601C46 601 23 601 11.5 601L0 601Z" fill="#2cd2cb"></path><path d="M0 120L11.5 123.7C23 127.3 46 134.7 69 158.7C92 182.7 115 223.3 138.2 249.5C161.3 275.7 184.7 287.3 207.8 290.5C231 293.7 254 288.3 277 275.8C300 263.3 323 243.7 346 250.8C369 258 392 292 415.2 280C438.3 268 461.7 210 484.8 186.7C508 163.3 531 174.7 554 198.8C577 223 600 260 623 256.3C646 252.7 669 208.3 692.2 196.2C715.3 184 738.7 204 761.8 220.5C785 237 808 250 831 235C854 220 877 177 888.5 155.5L900 134L900 601L888.5 601C877 601 854 601 831 601C808 601 785 601 761.8 601C738.7 601 715.3 601 692.2 601C669 601 646 601 623 601C600 601 577 601 554 601C531 601 508 601 484.8 601C461.7 601 438.3 601 415.2 601C392 601 369 601 346 601C323 601 300 601 277 601C254 601 231 601 207.8 601C184.7 601 161.3 601 138.2 601C115 601 92 601 69 601C46 601 23 601 11.5 601L0 601Z" fill="#00bcd4"></path><path d="M0 223L11.5 243.8C23 264.7 46 306.3 69 305.5C92 304.7 115 261.3 138.2 237.7C161.3 214 184.7 210 207.8 235.5C231 261 254 316 277 341.3C300 366.7 323 362.3 346 346.5C369 330.7 392 303.3 415.2 288.5C438.3 273.7 461.7 271.3 484.8 277.8C508 284.3 531 299.7 554 315.5C577 331.3 600 347.7 623 353.5C646 359.3 669 354.7 692.2 329.2C715.3 303.7 738.7 257.3 761.8 260.8C785 264.3 808 317.7 831 345.3C854 373 877 375 888.5 376L900 377L900 601L888.5 601C877 601 854 601 831 601C808 601 785 601 761.8 601C738.7 601 715.3 601 692.2 601C669 601 646 601 623 601C600 601 577 601 554 601C531 601 508 601 484.8 601C461.7 601 438.3 601 415.2 601C392 601 369 601 346 601C323 601 300 601 277 601C254 601 231 601 207.8 601C184.7 601 161.3 601 138.2 601C115 601 92 601 69 601C46 601 23 601 11.5 601L0 601Z" fill="#00a3d7"></path><path d="M0 325L11.5 312.5C23 300 46 275 69 280.3C92 285.7 115 321.3 138.2 340.5C161.3 359.7 184.7 362.3 207.8 365.5C231 368.7 254 372.3 277 351.8C300 331.3 323 286.7 346 269.3C369 252 392 262 415.2 273.7C438.3 285.3 461.7 298.7 484.8 307.3C508 316 531 320 554 337.5C577 355 600 386 623 402C646 418 669 419 692.2 401.2C715.3 383.3 738.7 346.7 761.8 324.2C785 301.7 808 293.3 831 283.7C854 274 877 263 888.5 257.5L900 252L900 601L888.5 601C877 601 854 601 831 601C808 601 785 601 761.8 601C738.7 601 715.3 601 692.2 601C669 601 646 601 623 601C600 601 577 601 554 601C531 601 508 601 484.8 601C461.7 601 438.3 601 415.2 601C392 601 369 601 346 601C323 601 300 601 277 601C254 601 231 601 207.8 601C184.7 601 161.3 601 138.2 601C115 601 92 601 69 601C46 601 23 601 11.5 601L0 601Z" fill="#0088d0"></path><path d="M0 410L11.5 407.3C23 404.7 46 399.3 69 398.2C92 397 115 400 138.2 389.8C161.3 379.7 184.7 356.3 207.8 341.5C231 326.7 254 320.3 277 341.2C300 362 323 410 346 429.2C369 448.3 392 438.7 415.2 414.2C438.3 389.7 461.7 350.3 484.8 343.8C508 337.3 531 363.7 554 377C577 390.3 600 390.7 623 385C646 379.3 669 367.7 692.2 358C715.3 348.3 738.7 340.7 761.8 355.5C785 370.3 808 407.7 831 415.2C854 422.7 877 400.3 888.5 389.2L900 378L900 601L888.5 601C877 601 854 601 831 601C808 601 785 601 761.8 601C738.7 601 715.3 601 692.2 601C669 601 646 601 623 601C600 601 577 601 554 601C531 601 508 601 484.8 601C461.7 601 438.3 601 415.2 601C392 601 369 601 346 601C323 601 300 601 277 601C254 601 231 601 207.8 601C184.7 601 161.3 601 138.2 601C115 601 92 601 69 601C46 601 23 601 11.5 601L0 601Z" fill="#006bc0"></path><path d="M0 460L11.5 450.2C23 440.3 46 420.7 69 418.8C92 417 115 433 138.2 441.2C161.3 449.3 184.7 449.7 207.8 456.3C231 463 254 476 277 461.7C300 447.3 323 405.7 346 396.7C369 387.7 392 411.3 415.2 417.3C438.3 423.3 461.7 411.7 484.8 407.2C508 402.7 531 405.3 554 406.8C577 408.3 600 408.7 623 405C646 401.3 669 393.7 692.2 393.5C715.3 393.3 738.7 400.7 761.8 404.7C785 408.7 808 409.3 831 414.5C854 419.7 877 429.3 888.5 434.2L900 439L900 601L888.5 601C877 601 854 601 831 601C808 601 785 601 761.8 601C738.7 601 715.3 601 692.2 601C669 601 646 601 623 601C600 601 577 601 554 601C531 601 508 601 484.8 601C461.7 601 438.3 601 415.2 601C392 601 369 601 346 601C323 601 300 601 277 601C254 601 231 601 207.8 601C184.7 601 161.3 601 138.2 601C115 601 92 601 69 601C46 601 23 601 11.5 601L0 601Z" fill="#004eae"></path><path d="M0 505L11.5 494C23 483 46 461 69 448.5C92 436 115 433 138.2 441.2C161.3 449.3 184.7 468.7 207.8 481.3C231 494 254 500 277 498.2C300 496.3 323 486.7 346 476.2C369 465.7 392 454.3 415.2 454.5C438.3 454.7 461.7 466.3 484.8 467C508 467.7 531 457.3 554 456.7C577 456 600 465 623 479.8C646 494.7 669 515.3 692.2 515.7C715.3 516 738.7 496 761.8 493C785 490 808 504 831 508.5C854 513 877 508 888.5 505.5L900 503L900 601L888.5 601C877 601 854 601 831 601C808 601 785 601 761.8 601C738.7 601 715.3 601 692.2 601C669 601 646 601 623 601C600 601 577 601 554 601C531 601 508 601 484.8 601C461.7 601 438.3 601 415.2 601C392 601 369 601 346 601C323 601 300 601 277 601C254 601 231 601 207.8 601C184.7 601 161.3 601 138.2 601C115 601 92 601 69 601C46 601 23 601 11.5 601L0 601Z" fill="#072e97"></path><path d="M0 565L11.5 562.2C23 559.3 46 553.7 69 542.7C92 531.7 115 515.3 138.2 516C161.3 516.7 184.7 534.3 207.8 536C231 537.7 254 523.3 277 518C300 512.7 323 516.3 346 523C369 529.7 392 539.3 415.2 549.2C438.3 559 461.7 569 484.8 571.2C508 573.3 531 567.7 554 566C577 564.3 600 566.7 623 565C646 563.3 669 557.7 692.2 554.8C715.3 552 738.7 552 761.8 552.7C785 553.3 808 554.7 831 544C854 533.3 877 510.7 888.5 499.3L900 488L900 601L888.5 601C877 601 854 601 831 601C808 601 785 601 761.8 601C738.7 601 715.3 601 692.2 601C669 601 646 601 623 601C600 601 577 601 554 601C531 601 508 601 484.8 601C461.7 601 438.3 601 415.2 601C392 601 369 601 346 601C323 601 300 601 277 601C254 601 231 601 207.8 601C184.7 601 161.3 601 138.2 601C115 601 92 601 69 601C46 601 23 601 11.5 601L0 601Z" fill="#23007b"></path></svg>